<mxfile host="app.diagrams.net" modified="2023-07-22T23:30:47.738Z" agent="Mozilla/5.0 (Macintosh; Intel Mac OS X 10_15_7) AppleWebKit/537.36 (KHTML, like Gecko) Chrome/115.0.0.0 Safari/537.36" version="21.6.5" etag="RqMepeAXI4iOgIj-Ww5b" type="github">
  <diagram name="Page-1" id="D-VK5aBKuudrHZusnyOm">
    <mxGraphModel>
      <root>
        <mxCell id="0" />
        <mxCell id="1" parent="0" />
      </root>
    </mxGraphModel>
  </diagram>
</mxfile>
